<svg width="50" height="60" viewBox="0 0 50 60" fill="none" xmlns="http://www.w3.org/2000/svg">
<g clip-path="url(#clip0_7762_1162)">
<path fill-rule="evenodd" clip-rule="evenodd" d="M38.5415 26.3638C39.3323 26.1919 40.2024 26.4585 41.0779 27.3341L41.0788 27.3349L54.0987 40.3988C54.0986 40.3987 54.0989 40.3989 54.0987 40.3988C55.1493 41.4495 55.7864 42.92 56.3338 44.2651C56.3912 44.406 56.4475 44.5455 56.5033 44.6835C57.0045 45.9238 57.4562 47.0415 58.0997 47.8984C58.3484 48.2296 58.2816 48.6998 57.9504 48.9485C57.6192 49.1972 57.149 49.1304 56.9003 48.7992C56.1303 47.7739 55.6019 46.4617 55.1167 45.2567C55.0588 45.1129 55.0015 44.9707 54.9445 44.8306C54.3847 43.4552 53.8443 42.2656 53.0381 41.4594L53.5684 40.9291L53.0372 41.4585L40.0172 28.3947C40.0171 28.3946 40.0174 28.3949 40.0172 28.3947C39.399 27.7767 39.0238 27.794 38.8602 27.8295C38.6208 27.8816 38.4271 28.0576 38.256 28.2287C38.1 28.3847 37.9221 28.59 37.8708 28.838C37.834 29.0158 37.8253 29.393 38.4211 29.9892C38.4214 29.9894 38.4217 29.9897 38.422 29.99L44.5638 36.1318C44.8566 36.4247 44.8566 36.8995 44.5638 37.1924C44.2709 37.4853 43.796 37.4853 43.5031 37.1924L35.4403 29.1296C35.1474 28.8367 35.1474 28.3618 35.4403 28.069C35.7332 27.7761 36.2081 27.7761 36.5009 28.069L36.5367 28.1047C36.7391 27.6278 37.0574 27.306 37.1953 27.1681C37.1998 27.1635 37.2046 27.1587 37.2096 27.1537C37.3829 26.9799 37.8466 26.5148 38.5415 26.3638ZM35.4403 33.3808C35.7332 33.0879 36.2081 33.0879 36.5009 33.3808L41.9078 38.7877C42.2007 39.0806 42.2007 39.5554 41.9078 39.8483C41.615 40.1412 41.1401 40.1412 40.8472 39.8483L35.4403 34.4414C35.1474 34.1485 35.1474 33.6737 35.4403 33.3808ZM31.4583 35.0426C31.7512 34.7497 32.2261 34.7497 32.519 35.0426L39.0859 41.6096C39.3788 41.9025 39.3788 42.3774 39.0859 42.6702C38.793 42.9631 38.3182 42.9631 38.0253 42.6702L31.4583 36.1033C31.1654 35.8104 31.1654 35.3355 31.4583 35.0426ZM29.8053 39.0334C30.0982 38.7405 30.573 38.7405 30.8659 39.0334L37.924 46.0914C38.9253 47.0928 39.2059 48.4019 38.653 49.4101C38.0769 50.4607 36.8035 50.8247 35.4645 50.3097C34.2061 49.8257 32.6367 48.9324 31.5112 48.2503C31.0093 47.9461 30.3664 48.121 30.1 48.6048C29.8596 49.0415 30.0008 49.5605 30.3975 49.8032C31.6494 50.5691 33.6458 51.7223 35.7229 52.6505C37.8387 53.5959 39.895 54.2405 41.32 54.1308C41.3568 54.128 41.3932 54.1251 41.4292 54.1221C41.6211 54.1062 41.8169 54.0891 42.0159 54.0718C43.2038 53.9685 44.5058 53.8552 45.7649 53.9084C47.2441 53.971 48.7524 54.2638 50.0545 55.1262C50.3998 55.3549 50.4944 55.8203 50.2656 56.1656C50.0369 56.511 49.5715 56.6055 49.2262 56.3768C48.2427 55.7253 47.0425 55.4638 45.7015 55.4071C44.5477 55.3583 43.3551 55.4616 42.1621 55.565C41.9591 55.5826 41.7561 55.6001 41.5533 55.617C41.5142 55.6202 41.4748 55.6234 41.435 55.6264C39.5976 55.7678 37.2329 54.9682 35.1109 54.0199C32.9502 53.0544 30.8921 51.8643 29.6147 51.0828C28.5057 50.4044 28.1751 48.9909 28.786 47.8814C29.4803 46.6203 31.0871 46.2393 32.2886 46.9675C33.4101 47.6472 34.8803 48.4779 36.0029 48.9097C36.8218 49.2246 37.2084 48.9247 37.3378 48.6888C37.4904 48.4106 37.5219 47.8107 36.8633 47.1521L29.8053 40.094C29.5124 39.8012 29.5124 39.3263 29.8053 39.0334Z" fill="#94C24A"></path>
<path fill-rule="evenodd" clip-rule="evenodd" d="M34.841 4.20152C34.8142 3.78817 34.4574 3.47481 34.044 3.5016C33.6307 3.52839 33.3173 3.88519 33.3441 4.29853C33.4236 5.52558 33.9935 6.59352 34.7308 7.47658C35.4679 8.35938 36.4041 9.09649 37.2979 9.67621C37.7376 9.96136 38.2276 10.325 38.769 10.7891C39.4903 11.4074 40.2017 12.402 40.8754 13.6168C41.5431 14.8208 42.1457 16.1891 42.6678 17.5088C43.1893 18.8269 43.6247 20.082 43.962 21.0608L44.0089 21.197C44.1567 21.6262 44.2865 22.0031 44.3938 22.2972C44.453 22.4597 44.5085 22.6055 44.5589 22.726C44.6028 22.8309 44.6626 22.966 44.7354 23.0757L44.7356 23.0769C44.7367 23.0831 44.739 23.1032 44.7332 23.1407C44.7207 23.2215 44.6764 23.3431 44.583 23.4884C44.382 23.801 44.0946 24.0145 43.9497 24.0628C43.6272 24.1703 43.3091 24.2354 43.034 24.1838C42.8147 24.1427 42.5319 24.0128 42.2754 23.4999C41.5722 22.0933 40.8742 20.6974 39.9425 18.6009C39.3598 17.2898 38.202 16.6469 37.0517 16.9824C35.9479 17.3043 35.2206 18.4284 35.2206 19.8445V33.2254C35.2206 33.9252 35.2057 34.4653 35.1622 34.887C35.118 35.3156 35.0492 35.5624 34.977 35.707C34.9191 35.8227 34.8628 35.8689 34.7802 35.9048C34.6661 35.9544 34.464 35.9966 34.0926 35.9966C33.7471 35.9966 33.5286 35.9463 33.3863 35.8799C33.2587 35.8203 33.1582 35.7326 33.069 35.5786C32.8574 35.213 32.7298 34.5202 32.7298 33.2254V22.192C32.7298 21.7778 32.394 21.442 31.9798 21.442C31.5656 21.442 31.2298 21.7778 31.2298 22.192V36.0424C31.2298 36.5776 31.2294 37.0342 31.2022 37.4327C31.1748 37.834 31.1227 38.1222 31.0442 38.3283C30.9715 38.5191 30.8864 38.6143 30.79 38.6746C30.6827 38.7416 30.4828 38.8136 30.1018 38.8136C29.6585 38.8136 29.4269 38.7681 29.2937 38.7066C29.2035 38.665 29.1193 38.6009 29.0334 38.3949C28.9336 38.1552 28.8525 37.7674 28.8028 37.1286C28.7539 36.4998 28.739 35.6888 28.739 34.6339V22.192C28.739 21.7778 28.4032 21.442 27.989 21.442C27.5748 21.442 27.239 21.7778 27.239 22.192V34.6339C27.239 35.2868 27.1234 35.5926 27.002 35.7383C26.9081 35.851 26.7005 35.9966 26.111 35.9966C25.5215 35.9966 25.3139 35.851 25.22 35.7383C25.0986 35.5926 24.983 35.2868 24.983 34.6339V34.5321C24.983 34.5263 24.983 34.5204 24.983 34.5145V22.192C24.983 21.7778 24.6472 21.442 24.233 21.442C23.8188 21.442 23.483 21.7778 23.483 22.192V30.8778C23.483 31.7216 23.2099 31.9824 23.0582 32.0821C22.8465 32.2212 22.5756 32.2406 22.355 32.2406C22.113 32.2406 21.8516 32.2281 21.6455 32.0956C21.6077 32.0713 21.5601 32.0354 21.5106 31.9789C21.48 31.9108 21.4388 31.8463 21.3868 31.788C21.2982 31.6044 21.227 31.321 21.227 30.8778V27.0005C21.227 26.9947 21.227 26.9888 21.227 26.983V11.1587C21.227 11.0987 21.2284 11.0404 21.2311 10.9837C21.2763 10.0462 21.8103 9.1858 22.5982 8.19679C22.7545 8.00059 22.9232 7.79724 23.0973 7.58729C23.7422 6.8096 24.4622 5.94131 24.909 5.01126C25.0884 4.6379 24.9311 4.18982 24.5578 4.01045C24.1844 3.83108 23.7363 3.98834 23.5569 4.3617C23.1978 5.10916 22.6404 5.7832 22.0175 6.5365C21.825 6.76929 21.6262 7.00968 21.425 7.26212C20.6257 8.26545 19.803 9.4558 19.7328 10.9115C19.7289 10.9926 19.727 11.075 19.727 11.1587V26.6811L11.1163 35.2918C10.4577 35.9504 9.85785 35.9188 9.57959 35.7662C9.34372 35.6369 9.0438 35.2502 9.35874 34.4314C10.1948 32.2575 10.6972 30.7505 11.1957 29.255L11.1962 29.2535C11.5128 28.3036 11.3719 27.5165 10.9584 26.9121C10.577 26.3547 10.018 26.0355 9.65812 25.8556C9.1307 25.5919 8.40595 25.5612 7.81468 25.6898C7.26022 25.8103 6.44407 26.1674 6.26531 27.0336C6.26534 27.0336 6.26535 27.0333 6.26531 27.0336C6.2652 27.0336 6.26458 27.035 6.26323 27.0389C6.25903 27.051 6.24783 27.0832 6.22357 27.1423C6.18698 27.2315 6.13433 27.3497 6.065 27.4986C5.93892 27.7694 5.77051 28.1148 5.5692 28.5277L5.50761 28.654C5.05348 29.5856 4.46078 30.8075 3.88288 32.1419C3.30568 33.4747 2.7369 34.9341 2.33283 36.3443C1.93217 37.7427 1.67601 39.1508 1.76914 40.3615C1.80651 40.8473 1.85785 41.2697 1.92131 41.6384C2.00192 42.1067 2.11125 42.567 2.21338 42.997L2.22324 43.0385C2.33021 43.4891 2.42804 43.9057 2.49422 44.3132C2.62562 45.1222 2.61771 45.817 2.32822 46.4762C2.16166 46.8554 2.33408 47.2979 2.71333 47.4644C3.09258 47.631 3.53504 47.4586 3.70161 47.0793C4.1564 46.0438 4.12824 45.0173 3.97482 44.0727C3.8986 43.6034 3.78788 43.1352 3.68266 42.692L3.67711 42.6686C3.57186 42.2254 3.47207 41.8051 3.39957 41.3839C3.34549 41.0698 3.29921 40.6948 3.26472 40.2464C3.19186 39.2992 3.39218 38.0929 3.77481 36.7575C4.15402 35.434 4.69533 34.0404 5.25935 32.738C5.82266 31.4373 6.4023 30.2419 6.85595 29.3112L6.91898 29.182C7.11804 28.7737 7.29271 28.4155 7.42486 28.1317C7.49786 27.9749 7.56176 27.8325 7.61132 27.7117C7.65448 27.6065 7.7077 27.4686 7.73378 27.3397L7.7345 27.3386C7.73809 27.3334 7.75061 27.3176 7.78129 27.2952C7.84731 27.2469 7.96459 27.1922 8.13332 27.1555C8.49652 27.0766 8.85074 27.1289 8.9873 27.1972C9.29136 27.3493 9.56237 27.5281 9.72044 27.7591C9.84641 27.9432 9.95452 28.2351 9.77316 28.7792C9.27588 30.271 8.7823 31.7516 7.95872 33.8929C7.44369 35.232 7.80775 36.5053 8.85834 37.0814C9.86654 37.6343 11.1756 37.3538 12.177 36.3524L19.727 28.8024V30.8778C19.727 31.3635 19.7926 31.7823 19.9135 32.1384L15.5982 36.4537C15.3053 36.7466 15.3053 37.2215 15.5982 37.5144C15.8911 37.8073 16.3659 37.8073 16.6588 37.5144L20.8231 33.3501C20.8268 33.3525 20.8306 33.355 20.8343 33.3574C21.4325 33.7419 22.0893 33.741 22.3347 33.7406L22.355 33.7406C22.55 33.7406 23.0027 33.7381 23.483 33.544V34.2127L18.4201 39.2756C18.1272 39.5685 18.1272 40.0434 18.4201 40.3363C18.713 40.6292 19.1878 40.6292 19.4807 40.3363L23.7162 36.1008C23.8021 36.316 23.9166 36.5174 24.0676 36.6986C24.4442 37.1505 24.96 37.3777 25.5478 37.4598L21.076 41.9315C20.7831 42.2244 20.7831 42.6993 21.076 42.9922C21.3689 43.2851 21.8437 43.2851 22.1366 42.9922L27.3598 37.7691C27.418 38.2284 27.5069 38.6312 27.6488 38.9718C27.8215 39.3862 28.0764 39.716 28.4347 39.9433C27.3827 41.0087 25.7247 42.6952 24.0095 44.44L23.6311 44.8249C21.1316 47.3675 18.5955 49.9465 17.6854 50.8565C17.3145 51.2274 16.7692 51.5987 16.1454 51.9277C15.1441 52.4559 13.9545 52.8499 12.6884 53.259L12.5265 53.3113C11.3352 53.6959 10.0817 54.1005 8.98908 54.6432C8.6181 54.8275 8.46674 55.2776 8.651 55.6486C8.83526 56.0195 9.28537 56.1709 9.65634 55.9866C10.6461 55.495 11.8036 55.1211 13.0322 54.7243L13.1497 54.6863C14.3948 54.284 15.7098 53.8533 16.8452 53.2545C17.5425 52.8867 18.23 52.4332 18.7461 51.9172C19.662 51.0013 22.2046 48.4156 24.7007 45.8765L25.0772 45.4936C27.2374 43.2962 29.2992 41.1988 30.1792 40.313C30.7064 40.3036 31.1837 40.1974 31.585 39.9466C32.0168 39.6767 32.2838 39.2877 32.4459 38.8623C32.6022 38.4521 32.6674 37.9921 32.6987 37.5351C32.7057 37.433 32.7111 37.3284 32.7153 37.2217C32.7274 37.2276 32.7397 37.2334 32.752 37.2392C33.1599 37.4296 33.6164 37.4966 34.0926 37.4966C34.5428 37.4966 34.9862 37.4509 35.3783 37.2804C35.8019 37.0962 36.1124 36.7903 36.3186 36.3778C36.5104 35.9941 36.6031 35.5367 36.6543 35.041C36.7061 34.5384 36.7206 33.934 36.7206 33.2254V19.8445C36.7206 18.9131 37.167 18.5112 37.4717 18.4224C37.7299 18.3471 38.2154 18.4084 38.5717 19.2101C39.5177 21.3384 40.2281 22.7592 40.9331 24.1693L40.9338 24.1707C41.3816 25.0662 42.0378 25.5232 42.7575 25.6582C43.4214 25.7826 44.0423 25.613 44.424 25.4858C44.9835 25.2993 45.5176 24.8085 45.8448 24.2995C46.1528 23.8205 46.4787 22.9865 45.9847 22.2455C45.986 22.2475 45.9871 22.2491 45.988 22.2505C45.9895 22.2528 45.9903 22.2541 45.9904 22.254C45.9908 22.2538 45.9753 22.2252 45.9428 22.1473C45.9056 22.0584 45.8593 21.9376 45.803 21.7833C45.7007 21.5028 45.5756 21.1396 45.4261 20.7056L45.3801 20.5722C45.0425 19.5923 44.5976 18.3092 44.0627 16.957C43.5284 15.6064 42.8986 14.1723 42.1871 12.8894C41.4817 11.6173 40.6671 10.4405 39.7452 9.65022C39.1584 9.14728 38.6153 8.74274 38.1141 8.41772C37.2952 7.88656 36.4906 7.24382 35.8822 6.51518C35.274 5.78682 34.8935 5.01173 34.841 4.20152ZM6.26531 27.0336C6.26465 27.0368 6.264 27.0401 6.26335 27.0433C6.26399 27.0401 6.26452 27.0376 6.26487 27.0359" fill="white"></path>
</g>
<defs>
<clipPath id="clip0_7762_1162">
<rect width="50" height="60" fill="white"></rect>
</clipPath>
</defs>
</svg>