<svg width="60" height="60" viewBox="0 0 60 60" fill="none" xmlns="http://www.w3.org/2000/svg">
<path class="access--hover" fill-rule="evenodd" clip-rule="evenodd" d="M29.1663 14.8446C29.1645 11.4896 28.1049 8.97322 26.4339 7.31445C24.7659 5.65863 22.5483 4.91802 20.3511 5.00717C15.9445 5.18596 11.5951 8.6981 11.5951 14.8534C11.5951 19.2891 10.1438 21.5542 8.503 22.6712C6.82187 23.8157 4.77217 23.8736 3.3943 23.5567C3.00139 23.4664 2.60943 23.7108 2.51883 24.1026C2.42823 24.4945 2.6733 24.8854 3.0662 24.9758C4.71998 25.3561 7.21775 25.3094 9.32619 23.8741C11.4749 22.4113 13.0553 19.6213 13.0553 14.8534C13.0553 9.50412 16.7615 6.61032 20.4104 6.46228C22.241 6.38801 24.0511 7.00376 25.4039 8.34664C26.7522 9.68512 27.7062 11.8069 27.7062 14.8534C27.7062 14.9825 27.7399 15.1038 27.799 15.2089V18.1321C26.7773 18.4435 26.0341 19.3914 26.0341 20.5124V23.5036C26.0341 24.6245 26.7773 25.5724 27.799 25.8838V29.408C27.799 29.8102 28.1258 30.1362 28.5291 30.1362C28.9323 30.1362 29.2591 29.8102 29.2591 29.408V25.8839C30.2811 25.5726 31.0244 24.6247 31.0244 23.5036V20.5124C31.0244 19.3913 30.2811 18.4433 29.2591 18.132V15.2001C29.2591 15.071 29.2254 14.9497 29.1663 14.8446ZM28.5293 24.5358C29.1008 24.5358 29.5642 24.0737 29.5642 23.5036V20.5124C29.5642 19.9423 29.1008 19.4801 28.5293 19.4801C27.9577 19.4801 27.4943 19.9423 27.4943 20.5124V23.5036C27.4943 24.0737 27.9577 24.5358 28.5293 24.5358Z" fill="#94C24A"></path>
<path fill-rule="evenodd" clip-rule="evenodd" d="M16.0322 27.04C16.0322 20.1049 21.6212 14.4719 28.5292 14.4719C31.6981 14.4719 34.592 15.6589 36.7937 17.6124C37.135 17.5044 37.501 17.4464 37.8828 17.4464C38.6189 17.4464 39.2962 17.6619 39.8509 18.0355V17.8314C39.8509 15.9266 41.3665 14.4719 43.2792 14.4719C45.1919 14.4719 46.7074 15.9267 46.7074 17.8314V18.0355C47.2621 17.6619 47.9393 17.4464 48.6754 17.4464C50.5881 17.4464 52.1036 18.9012 52.1036 20.8059V21.5821C52.6583 21.2084 53.3356 20.993 54.0717 20.993C55.9844 20.993 57.4999 22.4477 57.4999 24.3524V40.0258C57.4999 40.9662 57.2251 41.8715 56.852 42.7206C56.8462 42.7339 56.8399 42.747 56.8333 42.7598L54.2626 47.774C53.9409 48.5103 53.746 49.2035 53.746 49.979V54.2718C53.746 54.674 53.4191 55 53.0159 55C52.6127 55 52.2858 54.674 52.2858 54.2718V49.979C52.2858 48.931 52.5567 48.0279 52.9338 47.1698C52.9396 47.1566 52.9458 47.1435 52.9524 47.1306L55.5232 42.1165C55.8487 41.3714 56.0398 40.6815 56.0398 40.0258V24.3524C56.0398 23.2827 55.209 22.4493 54.0717 22.4493C52.9343 22.4493 52.1036 23.2826 52.1036 24.3524V32.2463C52.1036 32.6485 51.7768 32.9745 51.3735 32.9745C50.9703 32.9745 50.6435 32.6485 50.6435 32.2463V20.8059C50.6435 19.7361 49.8128 18.9027 48.6754 18.9027C47.5381 18.9027 46.7074 19.7361 46.7074 20.8059V33.0472C46.7074 33.4493 46.3805 33.7753 45.9773 33.7753C45.5741 33.7753 45.2472 33.4493 45.2472 33.0472V17.8314C45.2472 16.7616 44.4165 15.9282 43.2792 15.9282C42.1418 15.9282 41.3111 16.7616 41.3111 17.8314V33.0472C41.3111 33.4493 40.9842 33.7753 40.581 33.7753C40.1778 33.7753 39.8509 33.4493 39.8509 33.0472V20.8059C39.8509 19.7361 39.0202 18.9027 37.8828 18.9027C36.7455 18.9027 35.9148 19.7361 35.9148 20.8059V35.4497C35.9148 36.8337 34.2054 37.6347 33.2413 36.5176L31.9762 35.2839C31.2041 34.5309 30.0151 34.5309 29.2431 35.2839C28.4802 36.0279 28.4802 37.1595 29.2431 37.9035L37.5721 46.0263C39.2431 47.6559 40.138 49.9053 40.138 52.1527V54.1574C40.138 54.5596 39.8111 54.8856 39.4079 54.8856C39.0047 54.8856 38.6778 54.5596 38.6778 54.1574V52.1527C38.6778 50.2815 37.9303 48.4124 36.5512 47.0675L36.0336 46.5627C33.9444 48.1426 31.3451 49.08 28.5292 49.08C21.6212 49.08 16.0322 43.447 16.0322 36.5119V30.6074C16.0319 30.5967 16.0319 30.586 16.0322 30.5753V27.04ZM17.4923 31.157V36.5119C17.4923 42.6549 22.4398 47.6237 28.5292 47.6237C30.9361 47.6237 33.1623 46.8487 34.9765 45.5318L28.2222 38.9448C26.8736 37.6295 26.8736 35.5579 28.2222 34.2426C29.5618 32.9363 31.6575 32.9363 32.997 34.2426L34.2874 35.5011C34.3067 35.5199 34.325 35.5398 34.342 35.5606C34.3511 35.5716 34.3579 35.5759 34.3579 35.5759L34.3604 35.5771C34.3626 35.5776 34.3736 35.5791 34.3909 35.5724C34.4077 35.5658 34.4224 35.5544 34.4326 35.5399C34.4405 35.5286 34.4546 35.5032 34.4546 35.4497V30.504C29.3793 29.9958 22.8472 29.8498 17.4923 31.157ZM34.4546 29.0405C29.4473 28.5484 22.9647 28.3958 17.4923 29.66V27.04C17.4923 20.8971 22.4398 15.9282 28.5292 15.9282C31.1572 15.9282 33.5703 16.8522 35.4666 18.3972C34.8397 19 34.4546 19.8458 34.4546 20.8059V29.0405Z" fill="white"></path>
</svg>