<svg width="60" height="60" viewBox="0 0 60 60" fill="none" xmlns="http://www.w3.org/2000/svg">
<path class="access--hover" d="M0.731707 19.7368C0.327597 19.7368 0 20.0605 0 20.4597C0 20.8589 0.327597 21.1826 0.731707 21.1826H59.2683C59.6724 21.1826 60 20.8589 60 20.4597C60 20.0605 59.6724 19.7368 59.2683 19.7368H0.731707Z" fill="#94C24A"></path>
<path class="access--hover" d="M0.731707 28.1951C0.327597 28.1951 0 28.5188 0 28.918C0 29.3173 0.327597 29.6409 0.731707 29.6409H59.2683C59.6724 29.6409 60 29.3173 60 28.918C60 28.5188 59.6724 28.1951 59.2683 28.1951H0.731707Z" fill="#94C24A"></path>
<path d="M7.36245 37.1454C6.95834 37.1454 6.63074 37.469 6.63074 37.8683C6.63074 38.2675 6.95834 38.5912 7.36245 38.5912H26.0113C26.4154 38.5912 26.743 38.2675 26.743 37.8683C26.743 37.469 26.4154 37.1454 26.0113 37.1454H7.36245Z" fill="white"></path>
<path d="M6.63074 41.8025C6.63074 41.4033 6.95834 41.0796 7.36245 41.0796H13.7859C14.19 41.0796 14.5176 41.4033 14.5176 41.8025C14.5176 42.2018 14.19 42.5254 13.7859 42.5254H7.36245C6.95834 42.5254 6.63074 42.2018 6.63074 41.8025Z" fill="white"></path>
<path d="M47.1531 36.9829C47.1531 35.9338 48.041 35.0503 49.2187 35.0503H49.4259C50.6037 35.0503 51.4915 35.9338 51.4915 36.9829C51.4915 37.3822 51.8191 37.7058 52.2233 37.7058C52.6274 37.7058 52.955 37.3822 52.955 36.9829C52.955 35.0815 51.3563 33.6045 49.4259 33.6045H49.2187C47.2883 33.6045 45.6897 35.0815 45.6897 36.9829V37.5387H44.7637C44.3596 37.5387 44.032 37.8624 44.032 38.2616C44.032 38.6609 44.3596 38.9845 44.7637 38.9845H45.6897V39.8993H44.7637C44.3596 39.8993 44.032 40.223 44.032 40.6222C44.032 41.0214 44.3596 41.3451 44.7637 41.3451H45.6897V41.9006C45.6897 43.802 47.2883 45.279 49.2187 45.279H49.4259C51.3563 45.279 52.955 43.802 52.955 41.9006C52.955 41.5013 52.6274 41.1777 52.2233 41.1777C51.8191 41.1777 51.4915 41.5013 51.4915 41.9006C51.4915 42.9497 50.6037 43.8332 49.4259 43.8332H49.2187C48.041 43.8332 47.1531 42.9497 47.1531 41.9006V41.3451H49.5295C49.9336 41.3451 50.2612 41.0214 50.2612 40.6222C50.2612 40.223 49.9336 39.8993 49.5295 39.8993H47.1531V38.9845H49.5295C49.9336 38.9845 50.2612 38.6609 50.2612 38.2616C50.2612 37.8624 49.9336 37.5387 49.5295 37.5387H47.1531V36.9829Z" fill="white"></path>
<path fill-rule="evenodd" clip-rule="evenodd" d="M5.39391 10C2.42748 10 0 12.2638 0 15.1488V44.8512C0 47.7362 2.42748 50 5.39391 50H54.5025C57.4436 50 60.01 47.6574 59.8964 44.8363V15.1488C59.8964 12.2638 57.4689 10 54.5025 10H5.39391ZM1.46341 15.1488C1.46341 13.1161 3.18012 11.4458 5.39391 11.4458H54.5025C56.7163 11.4458 58.433 13.1161 58.433 15.1488V44.8512C58.433 44.8617 58.4332 44.8721 58.4337 44.8826C58.5168 46.7751 56.7359 48.5542 54.5025 48.5542H5.39391C3.18012 48.5542 1.46341 46.8839 1.46341 44.8512V15.1488Z" fill="white"></path>
</svg>