<svg width="60" height="60" viewBox="0 0 60 60" fill="none" xmlns="http://www.w3.org/2000/svg">
<path class="access--hover" fill-rule="evenodd" clip-rule="evenodd" d="M32.5516 9.19906C31.9735 9.55905 31.4521 10.2738 31.1806 11.1204C31.0588 11.5004 30.6478 11.711 30.2625 11.5908C29.8773 11.4707 29.6637 11.0653 29.7855 10.6854C30.1339 9.59871 30.8318 8.56336 31.7704 7.97888C32.2475 7.68179 32.8 7.49437 33.3983 7.50013C34.0009 7.50593 34.5986 7.70733 35.1595 8.107L35.1742 8.11769L35.1764 8.11933L35.1853 8.126L35.2235 8.15421C35.2579 8.17949 35.3099 8.21746 35.3786 8.26686C35.516 8.36566 35.7202 8.5101 35.9834 8.68999C36.5101 9.04989 37.2725 9.55096 38.2098 10.1119C40.0873 11.2354 42.6487 12.588 45.4139 13.532C48.1828 14.431 50.9124 14.8813 52.9556 15.106C53.9763 15.2182 54.8217 15.2737 55.41 15.3012C55.7041 15.315 55.9337 15.3217 56.0885 15.3249C56.1659 15.3266 56.2246 15.3273 56.2632 15.3277L56.3061 15.328L56.316 15.328L56.318 15.328L56.319 15.328C57.856 15.328 58.9355 16.1571 59.5055 17.2548C60.0587 18.3203 60.1437 19.6453 59.7807 20.7813C59.7803 20.7827 59.7799 20.784 59.7794 20.7854L53.6256 40.792L53.6251 40.7935C50.9527 49.4162 42.0218 54.5403 33.612 51.724C30.3785 50.6577 27.6841 48.6179 25.7551 45.9666C25.5195 45.6428 25.5947 45.1921 25.923 44.9597C26.2513 44.7274 26.7083 44.8015 26.9439 45.1253C28.7029 47.5429 31.1496 49.3908 34.0776 50.356L34.0809 50.3571C41.6091 52.8791 49.7619 48.3198 52.2255 40.3727C52.2256 40.3723 52.2257 40.372 52.2258 40.3716L58.3843 20.3503C58.6396 19.5539 58.5713 18.6217 58.2031 17.9126C57.851 17.2345 57.2391 16.7711 56.319 16.7711L56.314 16.7711L56.3001 16.7711L56.2491 16.7707C56.2048 16.7703 56.1404 16.7694 56.0571 16.7677C55.8905 16.7641 55.6483 16.757 55.3408 16.7427C54.726 16.7139 53.8493 16.6562 52.7935 16.5401C50.6851 16.3083 47.8473 15.8419 44.9509 14.9009L44.9406 14.8975C42.0407 13.9082 39.3798 12.4999 37.4508 11.3456C36.4844 10.7673 35.6971 10.2499 35.1502 9.87617C34.8766 9.68925 34.6629 9.53809 34.5167 9.43299C34.4436 9.38043 34.3873 9.33938 34.3489 9.31111L34.3047 9.27846L34.2965 9.27234C33.9553 9.03082 33.6492 8.94567 33.3841 8.94311C33.1131 8.94051 32.8329 9.02392 32.5516 9.19906Z" fill="#94C24A"></path>
<path d="M9.74844 21.7477C7.80957 21.7477 6.2678 23.263 6.2678 25.1749C6.2678 25.5734 6.59535 25.8964 6.9994 25.8964C7.40345 25.8964 7.731 25.5734 7.731 25.1749C7.731 24.0628 8.61487 23.1907 9.74844 23.1907C10.882 23.1907 11.7659 24.0627 11.7659 25.1749C11.7659 25.5734 12.0934 25.8964 12.4975 25.8964C12.9015 25.8964 13.229 25.5734 13.229 25.1749C13.229 23.263 11.6873 21.7477 9.74844 21.7477Z" fill="white"></path>
<path fill-rule="evenodd" clip-rule="evenodd" d="M10.8805 34.9462C11.0177 34.8109 11.2038 34.7349 11.3978 34.7349H20.1947C20.5988 34.7349 20.9263 35.058 20.9263 35.4564C20.9263 38.2251 18.6056 40.5071 15.7963 40.5071C12.996 40.5071 10.6663 38.3156 10.6663 35.4564C10.6663 35.2651 10.7433 35.0816 10.8805 34.9462ZM12.2004 36.178C12.5368 37.8558 14.0279 39.0641 15.7963 39.0641C17.5494 39.0641 19.0414 37.8101 19.3875 36.178H12.2004Z" fill="white"></path>
<path d="M21.8441 21.7477C19.9052 21.7477 18.3634 23.263 18.3634 25.1749C18.3634 25.5734 18.691 25.8964 19.095 25.8964C19.4991 25.8964 19.8266 25.5734 19.8266 25.1749C19.8266 24.0628 20.7105 23.1907 21.8441 23.1907C22.9776 23.1907 23.8615 24.0627 23.8615 25.1749C23.8615 25.5734 24.189 25.8964 24.5931 25.8964C24.9971 25.8964 25.3247 25.5734 25.3247 25.1749C25.3247 23.263 23.7829 21.7477 21.8441 21.7477Z" fill="white"></path>
<path fill-rule="evenodd" clip-rule="evenodd" d="M4.51617 8.65586L4.5183 8.65659L4.52855 8.6601L4.57265 8.67497C4.61237 8.68826 4.67254 8.70814 4.7519 8.73367C4.91062 8.78474 5.14602 8.85839 5.44808 8.94711C6.0524 9.12462 6.92239 9.3621 7.97824 9.59976C10.0943 10.0761 12.9363 10.5483 15.8733 10.5483C18.7656 10.5483 21.6075 10.0762 23.736 9.59958C24.7979 9.3618 25.6766 9.12417 26.2883 8.94649C26.594 8.85768 26.8328 8.78395 26.9939 8.73278C27.0745 8.70721 27.1357 8.68728 27.1762 8.67394L27.2211 8.659L27.2316 8.65546L27.2339 8.65471C27.2553 8.64741 27.2773 8.64099 27.2993 8.63568C28.6474 8.31047 29.7988 8.88275 30.5634 9.76561C31.3148 10.6333 31.7467 11.8457 31.7467 13.019V34.1932C31.7467 43.2064 24.7281 50.6573 15.8733 50.6573C7.10987 50.6573 0 43.2092 0 34.1932V13.019C0 11.8512 0.417367 10.6385 1.16465 9.768C1.92799 8.87879 3.07976 8.31278 4.44385 8.63485C4.46821 8.6406 4.49254 8.64768 4.51617 8.65586ZM27.6756 10.0308L27.64 10.0426C27.5945 10.0576 27.5282 10.0792 27.4422 10.1064C27.2703 10.161 27.0199 10.2383 26.7017 10.3308C26.0654 10.5156 25.1566 10.7613 24.06 11.0068C21.8718 11.4968 18.9138 11.9914 15.8733 11.9914C12.7891 11.9914 9.8312 11.497 7.65267 11.0066C6.56123 10.761 5.66025 10.5151 5.03043 10.3301C4.71542 10.2376 4.46795 10.1602 4.29808 10.1056C4.21314 10.0782 4.14757 10.0566 4.10264 10.0415L4.07139 10.031C3.37011 9.87737 2.76205 10.1405 2.28137 10.7004C1.77739 11.2875 1.46319 12.1615 1.46319 13.019V34.1932C1.46319 42.4849 7.98976 49.2143 15.8733 49.2143C23.8428 49.2143 30.2835 42.4877 30.2835 34.1932V13.019C30.2835 12.167 29.9617 11.2927 29.4508 10.7028C28.9599 10.1361 28.3506 9.87899 27.6756 10.0308Z" fill="white"></path>
<path d="M34.3238 22.1802C34.465 21.8069 34.2727 21.3913 33.8941 21.252C33.5156 21.1126 33.0942 21.3023 32.9529 21.6757C32.3181 23.3532 33.1698 25.3058 35.079 25.8663C36.7952 26.3703 38.4868 25.8998 39.2407 24.4157C39.4217 24.0595 39.2756 23.6259 38.9143 23.4474C38.5531 23.2689 38.1135 23.4131 37.9325 23.7693C37.5868 24.4499 36.7458 24.8501 35.4965 24.4833C34.4402 24.1731 33.97 23.115 34.3238 22.1802Z" fill="white"></path>
<path fill-rule="evenodd" clip-rule="evenodd" d="M38.4842 36.4481C35.9228 35.6873 32.651 36.8491 31.7151 39.8764C31.5994 40.2505 31.807 40.6473 32.1831 40.7712L41.1264 43.7172C41.3148 43.7793 41.5207 43.7631 41.6967 43.6725C41.8728 43.5818 42.0039 43.4245 42.06 43.2366C42.9705 40.1865 41.2189 37.2603 38.4842 36.4481ZM40.81 42.0916L33.3867 39.6463C34.2792 37.9877 36.3349 37.3167 38.0623 37.8298C39.8131 38.3498 41.0471 40.0964 40.81 42.0916Z" fill="white"></path>
<path d="M44.986 25.4762C45.3762 25.58 45.6073 25.976 45.5023 26.3607C45.2392 27.3241 45.8081 28.3341 46.8894 28.5453C48.1681 28.7952 48.9672 28.3191 49.2465 27.6096C49.3928 27.2382 49.8167 27.0541 50.1933 27.1985C50.57 27.3428 50.7568 27.7609 50.6106 28.1323C50.0015 29.6794 48.3622 30.3041 46.6055 29.9608C44.6513 29.579 43.6173 27.7137 44.0893 25.985C44.1944 25.6003 44.5959 25.3725 44.986 25.4762Z" fill="white"></path>
</svg>