<svg width="60" height="60" viewBox="0 0 60 60" fill="none" xmlns="http://www.w3.org/2000/svg">
<path class="access--hover" fill-rule="evenodd" clip-rule="evenodd" d="M15.9384 15.7996C15.9384 15.3974 16.2621 15.0714 16.6613 15.0714H31.759C32.1582 15.0714 32.4818 15.3974 32.4818 15.7996C32.4818 16.2017 32.1582 16.5277 31.759 16.5277H16.6613C16.2621 16.5277 15.9384 16.2017 15.9384 15.7996Z" fill="#94C24A"></path>
<path class="access--hover" fill-rule="evenodd" clip-rule="evenodd" d="M15.9384 23.8564C15.9384 23.4543 16.2621 23.1283 16.6613 23.1283H41.8241C42.2233 23.1283 42.547 23.4543 42.547 23.8564C42.547 24.2586 42.2233 24.5846 41.8241 24.5846H16.6613C16.2621 24.5846 15.9384 24.2586 15.9384 23.8564Z" fill="#94C24A"></path>
<path class="access--hover" fill-rule="evenodd" clip-rule="evenodd" d="M15.9384 27.885C15.9384 27.4829 16.2621 27.1568 16.6613 27.1568H41.8241C42.2233 27.1568 42.547 27.4829 42.547 27.885C42.547 28.2872 42.2233 28.6132 41.8241 28.6132H16.6613C16.2621 28.6132 15.9384 28.2872 15.9384 27.885Z" fill="#94C24A"></path>
<path d="M15.9384 31.9138C15.9384 31.5116 16.2621 31.1856 16.6613 31.1856H41.8241C42.2233 31.1856 42.547 31.5116 42.547 31.9138C42.547 32.3159 42.2233 32.6419 41.8241 32.6419H16.6613C16.2621 32.6419 15.9384 32.3159 15.9384 31.9138Z" fill="white"></path>
<path d="M16.6613 35.2139C16.2621 35.2139 15.9384 35.5399 15.9384 35.9421C15.9384 36.3442 16.2621 36.6703 16.6613 36.6703H41.8241C42.2233 36.6703 42.547 36.3442 42.547 35.9421C42.547 35.5399 42.2233 35.2139 41.8241 35.2139H16.6613Z" fill="white"></path>
<path d="M15.9384 39.9707C15.9384 39.5685 16.2621 39.2425 16.6613 39.2425H41.8241C42.2233 39.2425 42.547 39.5685 42.547 39.9707C42.547 40.3728 42.2233 40.6988 41.8241 40.6988H16.6613C16.2621 40.6988 15.9384 40.3728 15.9384 39.9707Z" fill="white"></path>
<path d="M16.6613 43.2711C16.2621 43.2711 15.9384 43.5971 15.9384 43.9992C15.9384 44.4014 16.2621 44.7274 16.6613 44.7274H30.7525C31.1517 44.7274 31.4753 44.4014 31.4753 43.9992C31.4753 43.5971 31.1517 43.2711 30.7525 43.2711H16.6613Z" fill="white"></path>
<path fill-rule="evenodd" clip-rule="evenodd" d="M10 8.95098C10 6.73145 11.7373 5 13.9437 5H42.0253C42.2385 5 42.4408 5.09474 42.5781 5.2589L49.825 13.9203C49.9349 14.0516 49.9951 14.2178 49.9951 14.3895V51.0287C50.1086 53.1948 48.2246 55 46.0514 55H13.9437C11.7373 55 10 53.2685 10 51.049V8.95098ZM13.9437 6.45631C12.5267 6.45631 11.4458 7.54485 11.4458 8.95098V51.049C11.4458 52.4552 12.5267 53.5437 13.9437 53.5437H46.0514C47.494 53.5437 48.624 52.3401 48.5506 51.0921C48.5498 51.0777 48.5493 51.0634 48.5493 51.049V15.1177H42.9892C42.0576 15.1177 41.3025 14.357 41.3025 13.4186V6.45631H13.9437ZM42.7482 7.72204L47.7176 13.6614H42.9892C42.8561 13.6614 42.7482 13.5527 42.7482 13.4186V7.72204Z" fill="white"></path>
</svg>