<svg width="60" height="60" viewBox="0 0 60 60" fill="none" xmlns="http://www.w3.org/2000/svg">
<path fill-rule="evenodd" clip-rule="evenodd" d="M25.9232 6.45631C23.1991 6.45631 21.029 8.59266 21.029 11.1816C21.029 13.7705 23.1991 15.9069 25.9232 15.9069C28.6472 15.9069 30.8173 13.7705 30.8173 11.1816C30.8173 8.59266 28.6472 6.45631 25.9232 6.45631ZM19.5727 11.1816C19.5727 7.74682 22.437 5 25.9232 5C29.4093 5 32.2736 7.74682 32.2736 11.1816C32.2736 14.6163 29.4093 17.3632 25.9232 17.3632C22.437 17.3632 19.5727 14.6163 19.5727 11.1816ZM40.5752 9.26565C37.8512 9.26565 35.6811 11.402 35.6811 13.9909C35.6811 16.5798 37.8512 18.7162 40.5752 18.7162C43.2993 18.7162 45.4694 16.5798 45.4694 13.9909C45.4694 11.402 43.2993 9.26565 40.5752 9.26565ZM34.2248 13.9909C34.2248 10.5562 37.0891 7.80934 40.5752 7.80934C44.0614 7.80934 46.9257 10.5562 46.9257 13.9909C46.9257 17.4257 44.0614 20.1725 40.5752 20.1725C37.0891 20.1725 34.2248 17.4257 34.2248 13.9909ZM49.6372 16.8997C49.1504 18.0125 48.6563 19.0791 48.1747 19.8355C47.3337 21.1561 45.6415 22.1506 44.0243 22.8551C42.3714 23.5753 40.6355 24.0601 39.5302 24.2888C39.5075 24.2935 39.4845 24.2971 39.4615 24.2996C36.4671 24.626 34.2627 25.1136 32.7325 25.5835C31.4847 25.9667 30.7225 26.3266 30.3438 26.5564L30.1768 27.6477C30.5408 27.8199 31.1311 28.0513 31.9844 28.2962C33.2446 28.6579 35.0336 29.0363 37.4172 29.2968C37.736 29.3317 37.9944 29.5709 38.0537 29.886C38.4227 31.8467 38.4059 36.8685 35.5892 41.9318C35.3937 42.2832 34.9504 42.4096 34.5989 42.2141C34.2475 42.0186 34.1211 41.5752 34.3166 41.2238C36.7125 36.9169 36.9162 32.6647 36.6986 30.68C34.517 30.4154 32.8278 30.0534 31.5826 29.696C30.9267 29.5077 30.3821 29.3174 29.9487 29.1381L29.3689 32.9267C29.3081 33.3242 28.9365 33.5972 28.539 33.5363C28.1415 33.4755 27.8685 33.1039 27.9294 32.7064L28.9516 26.027C28.9789 25.8486 29.0715 25.6867 29.2114 25.5727C29.6784 25.1922 30.7004 24.6841 32.305 24.1914C33.5932 23.7958 35.2958 23.3985 37.4668 23.084C37.1455 22.9307 36.762 22.7721 36.3096 22.6153C34.6845 22.052 32.206 21.5238 28.6096 21.3282C23.8611 21.0699 19.1308 18.7146 15.468 16.3704C13.6266 15.1918 12.0337 14.0021 10.8188 13.0529C10.2936 12.6425 9.83747 12.2758 9.46471 11.9762C9.40666 11.9295 9.35064 11.8845 9.29669 11.8412C8.88181 11.508 8.61863 11.3001 8.48195 11.209C7.94908 10.8537 7.48371 10.8347 7.17853 10.9639C6.88936 11.0863 6.55875 11.4213 6.45571 12.1875C6.45582 12.1867 6.45587 12.1872 6.45607 12.1893C6.45781 12.2072 6.47077 12.3409 6.63718 12.6403C6.80598 12.9439 7.07587 13.3187 7.43891 13.7584C8.16362 14.6362 9.18084 15.6795 10.2865 16.7934C10.452 16.9601 10.6193 17.1282 10.7876 17.2974C11.7336 18.2481 12.7113 19.2306 13.5659 20.1617C14.5615 21.2463 15.4473 22.3209 15.9221 23.2421C16.3165 24.0071 16.6042 25.136 16.8241 26.3926C17.0473 27.6683 17.2119 29.1467 17.3318 30.655C17.5716 33.6723 17.6359 36.8544 17.6216 38.867C17.6187 39.2692 17.2904 39.5929 16.8883 39.59C16.4861 39.5871 16.1624 39.2588 16.1653 38.8567C16.1794 36.8756 16.1158 33.7367 15.8801 30.7704C15.7621 29.2869 15.602 27.8578 15.3895 26.6436C15.1737 25.4101 14.9148 24.4664 14.6277 23.9094C14.2507 23.178 13.486 22.2282 12.493 21.1465C11.6601 20.2391 10.7067 19.2809 9.75973 18.3291C9.59036 18.1588 9.42119 17.9888 9.25295 17.8193C8.15446 16.7126 7.08994 15.6231 6.3159 14.6856C5.92957 14.2177 5.59583 13.7643 5.36433 13.3479C5.14916 12.9608 4.94737 12.4769 5.01239 11.9934C5.1649 10.8593 5.72875 9.99614 6.61089 9.62277C7.47702 9.25617 8.45981 9.44382 9.28992 9.99738C9.49399 10.1335 9.81912 10.393 10.2085 10.7057C10.2631 10.7495 10.3196 10.7949 10.3779 10.8417C10.7508 11.1415 11.1987 11.5016 11.7155 11.9053C12.9097 12.8384 14.4635 13.9984 16.2531 15.1438C19.8524 17.4474 24.3223 19.6366 28.6887 19.8741C32.3843 20.0751 35.0027 20.621 36.7865 21.2393C37.6782 21.5484 38.3704 21.8787 38.8873 22.1994C39.1854 22.3844 39.4417 22.5764 39.6465 22.7718C40.6673 22.5331 42.0901 22.1093 43.4426 21.52C45.0242 20.831 46.3561 19.98 46.9463 19.0532C47.3591 18.4049 47.8127 17.4368 48.3029 16.3161C48.4681 15.9384 48.6375 15.5433 48.8094 15.1424C49.1364 14.3798 49.4724 13.596 49.8059 12.8708C50.3126 11.7688 50.8496 10.719 51.4027 9.99659C51.6768 9.6385 51.9978 9.30272 52.3716 9.09821C52.7773 8.8763 53.2681 8.80247 53.7561 9.03911C54.5935 9.44528 54.8885 10.3964 54.9714 11.2969C55.0591 12.2509 54.9411 13.4476 54.6737 14.7657C54.1367 17.4128 52.9618 20.7172 51.3631 23.9024C49.8549 26.9074 49.0734 31.5162 48.7337 35.9634C48.3957 40.3896 48.5029 44.5387 48.7107 46.5542C48.7384 46.8222 48.6157 47.0836 48.392 47.2336C46.6886 48.3758 43.3197 50.4792 40.4347 51.8661C38.4374 52.8263 36.1928 52.1584 34.7723 50.6091L31.2643 46.7828C30.9925 46.4864 31.0125 46.0258 31.309 45.754C31.6054 45.4822 32.066 45.5022 32.3378 45.7986L35.8457 49.6249C36.9121 50.788 38.4845 51.1878 39.8037 50.5536C42.4117 49.2998 45.4618 47.4226 47.221 46.2633C47.0321 44.0341 46.9606 40.0569 47.2817 35.8525C47.6235 31.3758 48.418 26.5238 50.0616 23.2491C51.6148 20.1545 52.74 16.9727 53.2465 14.4762C53.5008 13.2226 53.5904 12.1832 53.5212 11.4303C53.4481 10.6359 53.2268 10.4045 53.125 10.3517C53.1151 10.3546 53.0972 10.3613 53.0705 10.3759C52.9575 10.4377 52.784 10.588 52.559 10.8819C52.1138 11.4634 51.6339 12.3812 51.129 13.4792C50.8027 14.1889 50.481 14.9392 50.1594 15.6895C49.9856 16.095 49.8117 16.5006 49.6372 16.8997Z" fill="white"></path>
<path class="access--hover" fill-rule="evenodd" clip-rule="evenodd" d="M24.5513 34.7991C23.9457 35.5252 23.6698 36.439 23.6698 37.1485C23.6698 37.945 23.9574 38.8531 24.5585 39.5517C25.1436 40.2318 26.0491 40.7427 27.3714 40.7427C28.2996 40.7427 29.2319 40.4595 29.9183 39.8868C30.5849 39.3307 31.0729 38.4593 31.0729 37.1485C31.0729 35.7635 30.2596 34.1402 28.4695 33.6844C28.1448 33.6018 27.78 33.5543 27.3714 33.5543C26.0446 33.5543 25.1386 34.0949 24.5513 34.7991ZM23.4329 33.8663C24.2842 32.8457 25.593 32.098 27.3714 32.098C27.8936 32.098 28.3796 32.1588 28.8288 32.2732C31.428 32.9349 32.5292 35.283 32.5292 37.1485C32.5292 38.8676 31.8672 40.1574 30.8513 41.005C29.8553 41.836 28.5727 42.1991 27.3714 42.1991C25.6269 42.1991 24.3176 41.5047 23.4545 40.5015C22.6075 39.517 22.2135 38.2639 22.2135 37.1485C22.2135 36.1124 22.6 34.865 23.4329 33.8663ZM16.6389 38.3781C16.9148 38.2752 17.2255 38.3485 17.4262 38.564C18.2168 39.4126 19.7508 40.6646 21.7231 41.5792C23.6912 42.4918 26.0476 43.0469 28.5149 42.5839C30.877 42.1407 32.512 41.6945 33.6813 41.3755C34.105 41.2599 34.4676 41.1609 34.7814 41.0849C35.0841 41.0115 35.3676 40.9533 35.6166 40.933C35.852 40.9138 36.1633 40.9176 36.4506 41.07C36.7859 41.2478 36.9497 41.5483 37.0154 41.8344C37.0737 42.0889 37.0645 42.3663 37.0409 42.619C36.9901 43.1641 36.7161 43.6224 36.3872 43.9937C36.0581 44.3651 35.6326 44.6966 35.1873 44.9948C34.5874 45.3965 33.8624 45.7927 33.1821 46.1644C32.8748 46.3324 32.5765 46.4954 32.303 46.6517C31.9969 46.8266 31.664 47.0488 31.3772 47.2768C31.0779 47.5149 30.8795 47.7197 30.7927 47.853C30.7067 47.9852 30.5978 48.2719 30.5019 48.7384C30.4101 49.1846 30.343 49.7283 30.3015 50.3188C30.1321 52.725 28.2418 55 25.6597 55C23.232 55 21.4093 52.9696 21.3139 50.6416C21.1825 47.4344 20.5414 46.1626 19.7921 45.4182C19.3949 45.0237 18.9301 44.7376 18.3468 44.3945C18.3128 44.3745 18.2785 44.3543 18.2438 44.3339C17.6974 44.0132 17.0663 43.6427 16.4276 43.1112C15.1882 42.0796 14.6731 41.0223 14.9628 40.0163C15.2264 39.1007 16.0718 38.5897 16.6389 38.3781ZM25.6597 53.5437C27.3131 53.5437 28.7207 52.0353 28.8488 50.2165C28.8932 49.5856 28.9666 48.974 29.0755 48.445C29.1801 47.9361 29.332 47.4276 29.5722 47.0585C29.7884 46.7264 30.134 46.4049 30.4707 46.137C30.8201 45.8592 31.2152 45.5959 31.5805 45.3872C31.9096 45.1992 32.2389 45.0194 32.5619 44.8431C33.2092 44.4897 33.8314 44.1501 34.377 43.7847C34.7761 43.5175 35.0862 43.2661 35.2972 43.0279C35.5084 42.7895 35.579 42.6114 35.5909 42.4839C35.5937 42.454 35.5959 42.4265 35.5976 42.4013C35.4783 42.4199 35.3242 42.4518 35.1244 42.5002C34.8535 42.5659 34.5206 42.6567 34.1209 42.7658C32.952 43.0848 31.2123 43.5595 28.7834 44.0153C25.935 44.5498 23.2655 43.8996 21.1105 42.9004C19.2352 42.0308 17.7131 40.8806 16.7488 39.9506C16.5507 40.0894 16.409 40.2568 16.3622 40.4193C16.314 40.5868 16.2816 41.0949 17.3592 41.9918C17.9037 42.445 18.4416 42.761 18.9994 43.0888C19.0279 43.1055 19.0565 43.1224 19.0852 43.1392C19.6598 43.4772 20.2751 43.8453 20.8184 44.385C21.9501 45.5092 22.6315 47.2258 22.769 50.582C22.8365 52.2291 24.1091 53.5437 25.6597 53.5437Z" fill="#94C24A"></path>
</svg>
