<svg width="200" height="110" viewBox="0 0 200 110" fill="none" xmlns="http://www.w3.org/2000/svg">
                <title>Lestrem (62)</title>
                <g clip-path="url(#clip0_7453_903)">
                    <path d="M16.487 13.931L16.2842 13.3209L10.0388 0C10.0388 0 4.31629 12.3542 4.23234 12.5932C1.41657 19.8348 6.14216 23.6221 7.89109 24.0367C9.64001 24.4531 15.7595 22.5268 16.6969 15.841C16.7476 15.2671 16.7232 14.6715 16.487 13.931Z" fill="white"></path>
                    <path d="M25.713 50.3436C26.2258 45.6914 23.4052 41.5378 19.4129 41.0662C15.4207 40.5947 11.7686 43.9837 11.2557 48.6358C10.7429 53.288 13.5635 57.4416 17.5558 57.9131C21.548 58.3847 25.2001 54.9957 25.713 50.3436Z" fill="white"></path>
                    <path d="M58.5452 95.5892V100.906C58.5452 101.176 58.5802 101.455 58.6519 101.745C58.7219 102.034 58.8408 102.302 59.007 102.547C59.1731 102.791 59.39 102.992 59.6576 103.148C59.9251 103.303 60.2574 103.381 60.651 103.381C61.0445 103.381 61.3768 103.303 61.6443 103.148C61.9119 102.992 62.1288 102.793 62.2949 102.547C62.4611 102.3 62.58 102.034 62.65 101.745C62.7199 101.455 62.7567 101.176 62.7567 100.906V95.5892H63.8935V101.091C63.8935 101.598 63.8113 102.058 63.6451 102.469C63.479 102.882 63.2499 103.238 62.9578 103.541C62.6657 103.843 62.3229 104.076 61.9294 104.239C61.5342 104.402 61.1074 104.486 60.651 104.486C60.1945 104.486 59.766 104.404 59.3725 104.239C58.9772 104.076 58.6344 103.843 58.3424 103.541C58.0503 103.238 57.8212 102.882 57.6568 102.469C57.4906 102.058 57.4084 101.598 57.4084 101.091V95.5892H58.5452Z" fill="white"></path>
                    <path d="M66.3333 98.4569H67.3984V99.3512H67.4211C67.554 99.0416 67.7866 98.79 68.1189 98.5981C68.4495 98.4062 68.8325 98.3102 69.2662 98.3102C69.5356 98.3102 69.7927 98.3537 70.041 98.4388C70.2894 98.5239 70.5062 98.656 70.6916 98.8371C70.877 99.0181 71.0257 99.248 71.1358 99.5305C71.246 99.8129 71.302 100.144 71.302 100.528V104.265H70.2369V100.834C70.2369 100.564 70.2019 100.334 70.1302 100.141C70.0602 99.9487 69.9641 99.793 69.8451 99.6753C69.7262 99.5576 69.5915 99.4707 69.4359 99.4182C69.282 99.3657 69.1228 99.3385 68.9567 99.3385C68.7363 99.3385 68.5317 99.3748 68.3411 99.449C68.1522 99.5214 67.986 99.6391 67.8444 99.7984C67.7027 99.9577 67.5925 100.16 67.5138 100.405C67.4351 100.649 67.3966 100.939 67.3966 101.274V104.263H66.3315V98.4551L66.3333 98.4569Z" fill="white"></path>
                    <path d="M74.429 101.765C74.429 102.018 74.4833 102.248 74.5882 102.458C74.6949 102.666 74.8348 102.844 75.0079 102.99C75.1811 103.137 75.3822 103.251 75.6113 103.332C75.8404 103.414 76.0765 103.454 76.3214 103.454C76.6519 103.454 76.9405 103.374 77.1853 103.215C77.4302 103.055 77.6558 102.845 77.8604 102.585L78.6649 103.222C78.072 104.013 77.2448 104.409 76.1797 104.409C75.7372 104.409 75.3367 104.332 74.9782 104.176C74.6197 104.02 74.3154 103.807 74.067 103.533C73.8187 103.26 73.6263 102.938 73.4934 102.565C73.3587 102.194 73.2922 101.79 73.2922 101.357C73.2922 100.924 73.3657 100.523 73.5109 100.151C73.656 99.7803 73.8571 99.458 74.1142 99.1829C74.3713 98.9077 74.6756 98.6941 75.0307 98.5402C75.3857 98.3863 75.7722 98.3066 76.1902 98.3066C76.6869 98.3066 77.1084 98.3953 77.4512 98.5764C77.794 98.7556 78.0773 98.991 78.2977 99.2806C78.5198 99.5703 78.6789 99.898 78.7769 100.26C78.8748 100.624 78.9255 100.993 78.9255 101.37V101.761H74.4273L74.429 101.765ZM77.7905 100.883C77.7835 100.638 77.745 100.414 77.6768 100.209C77.6086 100.005 77.5089 99.8274 77.376 99.6771C77.2413 99.525 77.0734 99.4074 76.8723 99.3223C76.6712 99.2372 76.4368 99.1937 76.1675 99.1937C75.8981 99.1937 75.669 99.2444 75.4522 99.3476C75.2353 99.449 75.0517 99.583 74.9012 99.7459C74.7508 99.9088 74.6354 100.092 74.5515 100.291C74.4693 100.492 74.4273 100.689 74.4273 100.885H77.7887L77.7905 100.883Z" fill="white"></path>
                    <path d="M84.041 95.5892H85.3545L87.8169 102.646H87.8414L90.3966 95.5892H91.6401L88.3381 104.263H87.273L84.0428 95.5892H84.041Z" fill="white"></path>
                    <path d="M92.7034 96.3731C92.7034 96.1522 92.7803 95.9622 92.9342 95.8046C93.0881 95.6471 93.2718 95.5657 93.4851 95.5657C93.6985 95.5657 93.8821 95.6453 94.0343 95.8046C94.1882 95.964 94.2652 96.1541 94.2652 96.3731C94.2652 96.5922 94.1882 96.7841 94.0343 96.9434C93.8804 97.1027 93.6968 97.1824 93.4851 97.1824C93.2735 97.1824 93.0881 97.1027 92.9342 96.9434C92.7803 96.7841 92.7034 96.594 92.7034 96.3731ZM92.9517 98.4569H94.0168V104.265H92.9517V98.4569Z" fill="white"></path>
                    <path d="M96.5022 95.0009H97.5673V104.263H96.5022V95.0009Z" fill="white"></path>
                    <path d="M100.054 95.0009H101.119V104.263H100.054V95.0009Z" fill="white"></path>
                    <path d="M104.327 101.765C104.327 102.018 104.379 102.248 104.486 102.458C104.591 102.666 104.731 102.844 104.906 102.99C105.079 103.137 105.28 103.251 105.509 103.332C105.738 103.414 105.974 103.454 106.221 103.454C106.551 103.454 106.84 103.374 107.083 103.215C107.328 103.055 107.554 102.845 107.758 102.585L108.563 103.222C107.971 104.013 107.143 104.409 106.077 104.409C105.637 104.409 105.234 104.332 104.876 104.176C104.517 104.02 104.213 103.807 103.965 103.533C103.716 103.26 103.524 102.938 103.391 102.565C103.258 102.192 103.19 101.79 103.19 101.357C103.19 100.924 103.263 100.523 103.41 100.151C103.555 99.7803 103.757 99.458 104.014 99.1829C104.271 98.9095 104.577 98.6941 104.93 98.5402C105.285 98.3845 105.673 98.3066 106.09 98.3066C106.586 98.3066 107.008 98.3953 107.351 98.5764C107.693 98.7574 107.977 98.991 108.195 99.2806C108.417 99.5703 108.577 99.898 108.675 100.26C108.773 100.624 108.823 100.993 108.823 101.37V101.761H104.325L104.327 101.765ZM107.688 100.883C107.681 100.638 107.643 100.414 107.574 100.209C107.506 100.005 107.407 99.8274 107.274 99.6771C107.139 99.525 106.973 99.4074 106.772 99.3223C106.571 99.2372 106.336 99.1937 106.067 99.1937C105.798 99.1937 105.567 99.2444 105.352 99.3476C105.135 99.449 104.951 99.583 104.801 99.7459C104.65 99.9088 104.535 100.092 104.453 100.291C104.37 100.492 104.328 100.689 104.328 100.885H107.69L107.688 100.883Z" fill="white"></path>
                    <path d="M114.836 99.1666C115.137 98.8805 115.483 98.6669 115.878 98.5239C116.272 98.3809 116.667 98.3103 117.061 98.3103C117.454 98.3103 117.825 98.3627 118.12 98.4696C118.416 98.5764 118.659 98.7194 118.848 98.8986C119.039 99.0779 119.179 99.2842 119.27 99.5178C119.359 99.7513 119.406 99.9939 119.406 100.247V103.213C119.406 103.417 119.409 103.604 119.418 103.776C119.427 103.948 119.437 104.111 119.453 104.266H118.507C118.484 103.971 118.472 103.678 118.472 103.385H118.449C118.211 103.76 117.932 104.026 117.608 104.181C117.285 104.337 116.91 104.415 116.484 104.415C116.223 104.415 115.975 104.379 115.738 104.304C115.502 104.23 115.294 104.12 115.118 103.973C114.941 103.827 114.801 103.645 114.698 103.428C114.595 103.211 114.544 102.961 114.544 102.675C114.544 102.3 114.626 101.985 114.787 101.732C114.948 101.478 115.17 101.272 115.45 101.113C115.73 100.953 116.057 100.839 116.433 100.771C116.807 100.702 117.208 100.666 117.634 100.666H118.416V100.419C118.416 100.273 118.388 100.126 118.334 99.9794C118.278 99.8328 118.196 99.6988 118.086 99.5811C117.974 99.4635 117.837 99.3693 117.671 99.2987C117.505 99.2281 117.309 99.1937 117.078 99.1937C116.874 99.1937 116.693 99.2136 116.539 99.2553C116.387 99.2951 116.247 99.3476 116.12 99.4092C115.994 99.4707 115.88 99.5431 115.777 99.6228C115.674 99.7043 115.576 99.7821 115.481 99.8563L114.841 99.1702L114.836 99.1666ZM117.867 97.3525H116.884L115.119 95.5874H116.636L117.867 97.3525ZM117.842 101.469C117.589 101.469 117.332 101.484 117.068 101.513C116.804 101.542 116.564 101.596 116.347 101.678C116.13 101.759 115.954 101.873 115.814 102.02C115.674 102.166 115.607 102.355 115.607 102.585C115.607 102.92 115.716 103.16 115.933 103.307C116.149 103.454 116.443 103.528 116.814 103.528C117.106 103.528 117.354 103.477 117.559 103.374C117.764 103.271 117.93 103.139 118.056 102.976C118.183 102.813 118.273 102.63 118.329 102.431C118.383 102.23 118.411 102.032 118.411 101.837V101.469H117.842Z" fill="white"></path>
                    <path d="M124.789 95.5892H126.103L128.563 102.646H128.588L131.145 95.5892H132.388L129.086 104.263H128.021L124.791 95.5892H124.789Z" fill="white"></path>
                    <path d="M133.453 96.3731C133.453 96.1522 133.53 95.9622 133.682 95.8046C133.836 95.6453 134.02 95.5657 134.233 95.5657C134.447 95.5657 134.629 95.6453 134.783 95.8046C134.936 95.964 135.013 96.1541 135.013 96.3731C135.013 96.5922 134.936 96.7841 134.783 96.9434C134.629 97.1027 134.445 97.1824 134.233 97.1824C134.022 97.1824 133.836 97.1027 133.682 96.9434C133.53 96.7841 133.453 96.594 133.453 96.3731ZM133.702 98.4569H134.767V104.265H133.702V98.4569Z" fill="white"></path>
                    <path d="M136.495 98.4569H137.726L139.405 102.905L141.014 98.4569H142.151L139.949 104.265H138.777L136.493 98.4569H136.495Z" fill="white"></path>
                    <path d="M143.798 98.4569H144.863V99.3512H144.888C144.958 99.1973 145.054 99.0561 145.171 98.9294C145.29 98.8027 145.423 98.694 145.568 98.6035C145.713 98.5148 145.874 98.4424 146.047 98.3899C146.221 98.3374 146.394 98.3102 146.567 98.3102C146.74 98.3102 146.897 98.3338 147.041 98.3827L146.994 99.5721C146.906 99.5486 146.819 99.5268 146.733 99.5105C146.647 99.4942 146.56 99.487 146.472 99.487C145.951 99.487 145.553 99.6373 145.276 99.9396C145 100.242 144.862 100.711 144.862 101.348V104.265H143.797V98.4569H143.798Z" fill="white"></path>
                    <path d="M149.479 101.765C149.479 102.018 149.531 102.248 149.638 102.458C149.743 102.666 149.883 102.844 150.058 102.99C150.231 103.137 150.432 103.251 150.661 103.332C150.89 103.414 151.126 103.454 151.373 103.454C151.703 103.454 151.992 103.374 152.235 103.215C152.48 103.055 152.706 102.845 152.91 102.585L153.715 103.222C153.124 104.013 152.295 104.409 151.23 104.409C150.789 104.409 150.387 104.332 150.028 104.176C149.669 104.02 149.365 103.807 149.117 103.533C148.868 103.26 148.676 102.938 148.543 102.565C148.41 102.192 148.342 101.79 148.342 101.357C148.342 100.924 148.415 100.523 148.562 100.151C148.708 99.7803 148.909 99.458 149.166 99.1829C149.423 98.9095 149.729 98.6941 150.082 98.5402C150.437 98.3845 150.826 98.3066 151.242 98.3066C151.738 98.3066 152.16 98.3953 152.503 98.5764C152.846 98.7574 153.129 98.991 153.347 99.2806C153.57 99.5703 153.729 99.898 153.827 100.26C153.925 100.624 153.975 100.993 153.975 101.37V101.761H149.477L149.479 101.765ZM152.84 100.883C152.833 100.638 152.795 100.414 152.727 100.209C152.658 100.005 152.559 99.8274 152.426 99.6771C152.291 99.525 152.125 99.4074 151.924 99.3223C151.723 99.2372 151.488 99.1937 151.219 99.1937C150.95 99.1937 150.719 99.2444 150.504 99.3476C150.287 99.449 150.103 99.583 149.953 99.7459C149.802 99.9088 149.687 100.092 149.605 100.291C149.523 100.492 149.481 100.689 149.481 100.885H152.842L152.84 100.883Z" fill="white"></path>
                    <path d="M33.875 85.8601C48.4505 58.6426 112.904 30.8764 198.449 49.6503C141.729 24.8406 46.831 37.9153 33.875 85.8601Z" fill="white"></path>
                    <path d="M77.5998 41.6048C51.4324 47.5393 9.73102 76.4732 37.0265 110C8.70266 91.4723 -13.799 52.9904 10.0388 15.7704C-0.682071 43.2758 8.09228 65.3555 18.4826 78.8194C23.8344 62.3919 36.7904 46.969 77.5998 41.6048Z" fill="white"></path>
                    <path d="M25.55 28.2187C25.55 28.2187 20.5114 32.1943 16.0884 32.7538C11.6636 33.315 9.29028 28.2187 9.29028 28.2187L17.414 19.8094L25.5378 28.2187H25.55Z" fill="white"></path>
                    <path d="M63.6243 67.2962H58.1694V89.079H73.4375V84.18H63.6243V67.2962Z" fill="white"></path>
                    <path d="M76.2271 89.079H93.2196V84.4081H81.6819V80.065H93.2196V75.5915H81.6819V71.9652H93.2196V67.2962H76.2271V89.079Z" fill="white"></path>
                    <path d="M110.744 77.4525C109.74 76.7664 108.236 76.2124 105.946 75.5915C102.718 74.7424 102.434 74.6446 101.84 74.3513C101.338 74.0906 101.088 73.6652 101.088 73.0786C101.088 71.8711 102.153 71.1523 103.909 71.1523C105.978 71.1523 107.2 72.1318 107.295 73.8299H112.468C112.374 69.2913 109.364 66.744 104.161 66.744C98.9575 66.744 95.8199 69.389 95.8199 73.4389C95.8199 75.1696 96.4163 76.6723 97.4185 77.5865C98.515 78.5334 99.6448 79.0566 102.779 79.9708C107.169 81.2779 107.763 81.6364 107.763 83.0087C107.763 84.4787 106.667 85.23 104.566 85.23C101.869 85.23 100.647 84.1854 100.521 81.7685H95.0347C95.1291 86.7652 98.5465 89.6384 104.377 89.6384C109.895 89.6384 113.313 86.863 113.313 82.3877C113.313 80.2641 112.435 78.5334 110.742 77.4562L110.744 77.4525Z" fill="white"></path>
                    <path d="M114.537 72.1952H120.744V89.079H126.199V72.1952H132.439V67.2962H114.537V72.1952Z" fill="white"></path>
                    <path d="M152.69 86.3688C152.377 81.3069 151.686 79.7391 149.43 78.89C151.405 78.041 152.627 76.0169 152.627 73.6C152.627 71.3461 151.593 69.4198 149.806 68.31C148.584 67.5913 147.298 67.298 144.977 67.298H134.662V89.0808H140.117V80.981H143.471C145.916 80.981 146.889 81.8953 147.202 84.5077C147.359 86.5969 147.483 87.7737 147.515 88.067C147.609 88.5576 147.704 88.8509 147.797 89.079H153.377L153.22 88.8509C152.97 88.525 152.781 87.6107 152.687 86.3688H152.69ZM144.005 76.8986H140.117V71.7715H143.91C146.2 71.7715 147.265 72.588 147.265 74.2862C147.265 76.0821 146.23 76.8986 144.005 76.8986Z" fill="white"></path>
                    <path d="M156.544 89.079H173.539V84.4081H162.001V80.065H173.539V75.5915H162.001V71.9652H173.539V67.2962H156.544V89.079Z" fill="white"></path>
                    <path d="M197.354 67.2238H194.941H192.228L188.305 80.4307L184.384 67.2238H181.671H179.258H176.612V89.0066H181.671V75.3869L185.699 89.0066H190.913L194.941 75.3869V89.0066H200V67.2238H197.354Z" fill="white"></path>
                </g>
                <defs>
                    <clipPath id="clip0_7453_903">
                        <rect width="200" height="110" fill="white"></rect>
                    </clipPath>
                </defs>
            </svg>