<?xml version="1.0" encoding="UTF-8"?> <svg xmlns="http://www.w3.org/2000/svg" width="643" height="721" viewBox="0 0 643 721" fill="none"> <g filter="url(#filter0_d)"> <path fill-rule="evenodd" clip-rule="evenodd" d="M372.239 519.516C341.612 529.83 304.426 528.98 274.517 517.282C219.995 495.959 184.309 447.111 180.607 388.735C180.353 384.724 180.011 381.31 179.848 381.147C179.236 380.535 87.3042 374.85 86.4749 375.373C83.8806 377.01 86.0648 410.703 90.0801 430.983C104.995 506.308 155.921 570.616 226.119 602.769C286.327 630.347 361.663 631.063 420.634 604.621L422.121 603.954C421.786 602.682 380.25 517.993 379.658 517.402C379.5 517.244 376.162 518.195 372.239 519.516Z" fill="#6986F9"></path> </g> <g filter="url(#filter1_d)"> <path fill-rule="evenodd" clip-rule="evenodd" d="M457.971 251.205L431.013 278.164L434.331 281.482C453.526 300.677 467.998 332.605 471.784 364.112C472.553 370.507 472.939 371.859 473.985 371.822C488.048 371.313 552.074 366.622 552.199 366.092C552.294 365.687 551.737 360.92 550.962 355.499C544.386 309.537 523.781 265.826 493.328 233.235L484.93 224.247L457.971 251.205Z" fill="#80C5B4"></path> </g> <g filter="url(#filter2_d)"> <path fill-rule="evenodd" clip-rule="evenodd" d="M524.632 367.722L474.2 371.317L473.999 380.43C472.727 437.939 437.04 492.269 385.084 515.792C382.044 517.168 379.574 518.605 379.596 518.986C379.643 519.817 419.969 608.769 422.72 614.11C425.106 618.742 424.597 618.774 434.93 613.33C510.902 573.298 563.237 499.025 574.169 415.726C576.386 398.83 577.245 366.309 575.519 364.583C575.268 364.333 552.369 365.745 524.632 367.722Z" fill="#FD566E"></path> </g> <g filter="url(#filter3_d)"> <path fill-rule="evenodd" clip-rule="evenodd" d="M507.16 181.735C466.843 148.775 427.788 129.488 382.146 120.001C301.206 103.176 220.963 121.872 155.331 172.846C147.524 178.91 119.275 207.163 113.24 214.944C81.1185 256.358 62.6469 300.036 56.1741 349.881C54.6628 361.518 54.0092 372.224 54.7853 372.618C55.149 372.803 83.7755 374.685 118.399 376.802L181.352 380.65L181.686 374.524C186.05 294.348 249.681 234.393 329.017 235.706C366.312 236.323 404.558 251.739 428.708 275.89L432.84 280.022L476.158 236.704L519.476 193.387L514.279 188.347C511.421 185.575 508.218 182.6 507.16 181.735Z" fill="#FFA64D"></path> </g> <path d="M235.4 202.59H231.98V207H227.24V202.59H215.93V199.32L225.83 186H230.93L221.75 198.63H227.39V194.7H231.98V198.63H235.4V202.59ZM245.854 207.36C244.114 207.36 242.564 206.93 241.204 206.07C239.844 205.21 238.774 203.97 237.994 202.35C237.234 200.71 236.854 198.76 236.854 196.5C236.854 194.24 237.234 192.3 237.994 190.68C238.774 189.04 239.844 187.79 241.204 186.93C242.564 186.07 244.114 185.64 245.854 185.64C247.594 185.64 249.144 186.07 250.504 186.93C251.864 187.79 252.924 189.04 253.684 190.68C254.464 192.3 254.854 194.24 254.854 196.5C254.854 198.76 254.464 200.71 253.684 202.35C252.924 203.97 251.864 205.21 250.504 206.07C249.144 206.93 247.594 207.36 245.854 207.36ZM245.854 203.25C247.134 203.25 248.134 202.7 248.854 201.6C249.594 200.5 249.964 198.8 249.964 196.5C249.964 194.2 249.594 192.5 248.854 191.4C248.134 190.3 247.134 189.75 245.854 189.75C244.594 189.75 243.594 190.3 242.854 191.4C242.134 192.5 241.774 194.2 241.774 196.5C241.774 198.8 242.134 200.5 242.854 201.6C243.594 202.7 244.594 203.25 245.854 203.25ZM262.075 197.34C260.535 197.34 259.275 196.82 258.295 195.78C257.335 194.72 256.855 193.31 256.855 191.55C256.855 189.79 257.335 188.39 258.295 187.35C259.275 186.29 260.535 185.76 262.075 185.76C263.615 185.76 264.865 186.29 265.825 187.35C266.785 188.39 267.265 189.79 267.265 191.55C267.265 193.31 266.785 194.72 265.825 195.78C264.865 196.82 263.615 197.34 262.075 197.34ZM274.585 186H278.155L263.815 207H260.245L274.585 186ZM262.075 194.88C262.755 194.88 263.285 194.6 263.665 194.04C264.065 193.48 264.265 192.65 264.265 191.55C264.265 190.45 264.065 189.62 263.665 189.06C263.285 188.5 262.755 188.22 262.075 188.22C261.415 188.22 260.885 188.51 260.485 189.09C260.085 189.65 259.885 190.47 259.885 191.55C259.885 192.63 260.085 193.46 260.485 194.04C260.885 194.6 261.415 194.88 262.075 194.88ZM276.325 207.24C275.325 207.24 274.425 207.01 273.625 206.55C272.845 206.07 272.235 205.39 271.795 204.51C271.355 203.63 271.135 202.61 271.135 201.45C271.135 200.29 271.355 199.27 271.795 198.39C272.235 197.51 272.845 196.84 273.625 196.38C274.425 195.9 275.325 195.66 276.325 195.66C277.865 195.66 279.115 196.19 280.075 197.25C281.055 198.29 281.545 199.69 281.545 201.45C281.545 203.21 281.055 204.62 280.075 205.68C279.115 206.72 277.865 207.24 276.325 207.24ZM276.325 204.78C277.005 204.78 277.535 204.5 277.915 203.94C278.315 203.36 278.515 202.53 278.515 201.45C278.515 200.37 278.315 199.55 277.915 198.99C277.535 198.41 277.005 198.12 276.325 198.12C275.665 198.12 275.135 198.4 274.735 198.96C274.335 199.52 274.135 200.35 274.135 201.45C274.135 202.55 274.335 203.38 274.735 203.94C275.135 204.5 275.665 204.78 276.325 204.78Z" fill="white"></path> <path d="M477.27 478V499H472.41V481.9H468.21V478H477.27ZM495.288 487.96C496.328 488.48 497.118 489.16 497.658 490C498.218 490.84 498.498 491.81 498.498 492.91C498.498 494.21 498.128 495.35 497.388 496.33C496.648 497.29 495.608 498.04 494.268 498.58C492.928 499.1 491.378 499.36 489.618 499.36C487.858 499.36 486.308 499.1 484.968 498.58C483.648 498.04 482.618 497.29 481.878 496.33C481.158 495.35 480.798 494.21 480.798 492.91C480.798 491.81 481.068 490.84 481.608 490C482.168 489.16 482.958 488.48 483.978 487.96C483.198 487.48 482.598 486.88 482.178 486.16C481.758 485.42 481.548 484.58 481.548 483.64C481.548 482.42 481.888 481.36 482.568 480.46C483.248 479.56 484.198 478.87 485.418 478.39C486.638 477.89 488.038 477.64 489.618 477.64C491.218 477.64 492.628 477.89 493.848 478.39C495.088 478.87 496.048 479.56 496.728 480.46C497.408 481.36 497.748 482.42 497.748 483.64C497.748 484.58 497.538 485.42 497.118 486.16C496.698 486.88 496.088 487.48 495.288 487.96ZM489.618 481.21C488.638 481.21 487.848 481.45 487.248 481.93C486.668 482.39 486.378 483.03 486.378 483.85C486.378 484.65 486.668 485.28 487.248 485.74C487.828 486.2 488.618 486.43 489.618 486.43C490.618 486.43 491.418 486.2 492.018 485.74C492.618 485.28 492.918 484.65 492.918 483.85C492.918 483.03 492.618 482.39 492.018 481.93C491.418 481.45 490.618 481.21 489.618 481.21ZM489.618 495.79C490.838 495.79 491.798 495.52 492.498 494.98C493.218 494.42 493.578 493.68 493.578 492.76C493.578 491.84 493.218 491.11 492.498 490.57C491.798 490.03 490.838 489.76 489.618 489.76C488.418 489.76 487.468 490.03 486.768 490.57C486.068 491.11 485.718 491.84 485.718 492.76C485.718 493.7 486.068 494.44 486.768 494.98C487.468 495.52 488.418 495.79 489.618 495.79ZM505.29 489.34C503.75 489.34 502.49 488.82 501.51 487.78C500.55 486.72 500.07 485.31 500.07 483.55C500.07 481.79 500.55 480.39 501.51 479.35C502.49 478.29 503.75 477.76 505.29 477.76C506.83 477.76 508.08 478.29 509.04 479.35C510 480.39 510.48 481.79 510.48 483.55C510.48 485.31 510 486.72 509.04 487.78C508.08 488.82 506.83 489.34 505.29 489.34ZM517.8 478H521.37L507.03 499H503.46L517.8 478ZM505.29 486.88C505.97 486.88 506.5 486.6 506.88 486.04C507.28 485.48 507.48 484.65 507.48 483.55C507.48 482.45 507.28 481.62 506.88 481.06C506.5 480.5 505.97 480.22 505.29 480.22C504.63 480.22 504.1 480.51 503.7 481.09C503.3 481.65 503.1 482.47 503.1 483.55C503.1 484.63 503.3 485.46 503.7 486.04C504.1 486.6 504.63 486.88 505.29 486.88ZM519.54 499.24C518.54 499.24 517.64 499.01 516.84 498.55C516.06 498.07 515.45 497.39 515.01 496.51C514.57 495.63 514.35 494.61 514.35 493.45C514.35 492.29 514.57 491.27 515.01 490.39C515.45 489.51 516.06 488.84 516.84 488.38C517.64 487.9 518.54 487.66 519.54 487.66C521.08 487.66 522.33 488.19 523.29 489.25C524.27 490.29 524.76 491.69 524.76 493.45C524.76 495.21 524.27 496.62 523.29 497.68C522.33 498.72 521.08 499.24 519.54 499.24ZM519.54 496.78C520.22 496.78 520.75 496.5 521.13 495.94C521.53 495.36 521.73 494.53 521.73 493.45C521.73 492.37 521.53 491.55 521.13 490.99C520.75 490.41 520.22 490.12 519.54 490.12C518.88 490.12 518.35 490.4 517.95 490.96C517.55 491.52 517.35 492.35 517.35 493.45C517.35 494.55 517.55 495.38 517.95 495.94C518.35 496.5 518.88 496.78 519.54 496.78Z" fill="white"></path> <path d="M477.27 296V317H472.41V299.9H468.21V296H477.27ZM489.918 317.36C488.178 317.36 486.628 316.93 485.268 316.07C483.908 315.21 482.838 313.97 482.058 312.35C481.298 310.71 480.918 308.76 480.918 306.5C480.918 304.24 481.298 302.3 482.058 300.68C482.838 299.04 483.908 297.79 485.268 296.93C486.628 296.07 488.178 295.64 489.918 295.64C491.658 295.64 493.208 296.07 494.568 296.93C495.928 297.79 496.988 299.04 497.748 300.68C498.528 302.3 498.918 304.24 498.918 306.5C498.918 308.76 498.528 310.71 497.748 312.35C496.988 313.97 495.928 315.21 494.568 316.07C493.208 316.93 491.658 317.36 489.918 317.36ZM489.918 313.25C491.198 313.25 492.198 312.7 492.918 311.6C493.658 310.5 494.028 308.8 494.028 306.5C494.028 304.2 493.658 302.5 492.918 301.4C492.198 300.3 491.198 299.75 489.918 299.75C488.658 299.75 487.658 300.3 486.918 301.4C486.198 302.5 485.838 304.2 485.838 306.5C485.838 308.8 486.198 310.5 486.918 311.6C487.658 312.7 488.658 313.25 489.918 313.25ZM506.139 307.34C504.599 307.34 503.339 306.82 502.359 305.78C501.399 304.72 500.919 303.31 500.919 301.55C500.919 299.79 501.399 298.39 502.359 297.35C503.339 296.29 504.599 295.76 506.139 295.76C507.679 295.76 508.929 296.29 509.889 297.35C510.849 298.39 511.329 299.79 511.329 301.55C511.329 303.31 510.849 304.72 509.889 305.78C508.929 306.82 507.679 307.34 506.139 307.34ZM518.649 296H522.219L507.879 317H504.309L518.649 296ZM506.139 304.88C506.819 304.88 507.349 304.6 507.729 304.04C508.129 303.48 508.329 302.65 508.329 301.55C508.329 300.45 508.129 299.62 507.729 299.06C507.349 298.5 506.819 298.22 506.139 298.22C505.479 298.22 504.949 298.51 504.549 299.09C504.149 299.65 503.949 300.47 503.949 301.55C503.949 302.63 504.149 303.46 504.549 304.04C504.949 304.6 505.479 304.88 506.139 304.88ZM520.389 317.24C519.389 317.24 518.489 317.01 517.689 316.55C516.909 316.07 516.299 315.39 515.859 314.51C515.419 313.63 515.199 312.61 515.199 311.45C515.199 310.29 515.419 309.27 515.859 308.39C516.299 307.51 516.909 306.84 517.689 306.38C518.489 305.9 519.389 305.66 520.389 305.66C521.929 305.66 523.179 306.19 524.139 307.25C525.119 308.29 525.609 309.69 525.609 311.45C525.609 313.21 525.119 314.62 524.139 315.68C523.179 316.72 521.929 317.24 520.389 317.24ZM520.389 314.78C521.069 314.78 521.599 314.5 521.979 313.94C522.379 313.36 522.579 312.53 522.579 311.45C522.579 310.37 522.379 309.55 521.979 308.99C521.599 308.41 521.069 308.12 520.389 308.12C519.729 308.12 519.199 308.4 518.799 308.96C518.399 309.52 518.199 310.35 518.199 311.45C518.199 312.55 518.399 313.38 518.799 313.94C519.199 314.5 519.729 314.78 520.389 314.78Z" fill="white"></path> <path d="M207.98 544.55C209.82 544.85 211.23 545.54 212.21 546.62C213.19 547.68 213.68 549 213.68 550.58C213.68 551.8 213.36 552.93 212.72 553.97C212.08 554.99 211.1 555.81 209.78 556.43C208.48 557.05 206.88 557.36 204.98 557.36C203.5 557.36 202.04 557.17 200.6 556.79C199.18 556.39 197.97 555.83 196.97 555.11L198.86 551.39C199.66 551.99 200.58 552.46 201.62 552.8C202.68 553.12 203.76 553.28 204.86 553.28C206.08 553.28 207.04 553.05 207.74 552.59C208.44 552.11 208.79 551.44 208.79 550.58C208.79 548.86 207.48 548 204.86 548H202.64V544.79L206.96 539.9H198.02V536H212.72V539.15L207.98 544.55ZM231.467 553.04V557H215.597V553.85L223.697 546.2C224.557 545.38 225.137 544.68 225.437 544.1C225.737 543.5 225.887 542.91 225.887 542.33C225.887 541.49 225.597 540.85 225.017 540.41C224.457 539.95 223.627 539.72 222.527 539.72C221.607 539.72 220.777 539.9 220.037 540.26C219.297 540.6 218.677 541.12 218.177 541.82L214.637 539.54C215.457 538.32 216.587 537.37 218.027 536.69C219.467 535.99 221.117 535.64 222.977 535.64C224.537 535.64 225.897 535.9 227.057 536.42C228.237 536.92 229.147 537.64 229.787 538.58C230.447 539.5 230.777 540.59 230.777 541.85C230.777 542.99 230.537 544.06 230.057 545.06C229.577 546.06 228.647 547.2 227.267 548.48L222.437 553.04H231.467ZM238.626 547.34C237.086 547.34 235.826 546.82 234.846 545.78C233.886 544.72 233.406 543.31 233.406 541.55C233.406 539.79 233.886 538.39 234.846 537.35C235.826 536.29 237.086 535.76 238.626 535.76C240.166 535.76 241.416 536.29 242.376 537.35C243.336 538.39 243.816 539.79 243.816 541.55C243.816 543.31 243.336 544.72 242.376 545.78C241.416 546.82 240.166 547.34 238.626 547.34ZM251.136 536H254.706L240.366 557H236.796L251.136 536ZM238.626 544.88C239.306 544.88 239.836 544.6 240.216 544.04C240.616 543.48 240.816 542.65 240.816 541.55C240.816 540.45 240.616 539.62 240.216 539.06C239.836 538.5 239.306 538.22 238.626 538.22C237.966 538.22 237.436 538.51 237.036 539.09C236.636 539.65 236.436 540.47 236.436 541.55C236.436 542.63 236.636 543.46 237.036 544.04C237.436 544.6 237.966 544.88 238.626 544.88ZM252.876 557.24C251.876 557.24 250.976 557.01 250.176 556.55C249.396 556.07 248.786 555.39 248.346 554.51C247.906 553.63 247.686 552.61 247.686 551.45C247.686 550.29 247.906 549.27 248.346 548.39C248.786 547.51 249.396 546.84 250.176 546.38C250.976 545.9 251.876 545.66 252.876 545.66C254.416 545.66 255.666 546.19 256.626 547.25C257.606 548.29 258.096 549.69 258.096 551.45C258.096 553.21 257.606 554.62 256.626 555.68C255.666 556.72 254.416 557.24 252.876 557.24ZM252.876 554.78C253.556 554.78 254.086 554.5 254.466 553.94C254.866 553.36 255.066 552.53 255.066 551.45C255.066 550.37 254.866 549.55 254.466 548.99C254.086 548.41 253.556 548.12 252.876 548.12C252.216 548.12 251.686 548.4 251.286 548.96C250.886 549.52 250.686 550.35 250.686 551.45C250.686 552.55 250.886 553.38 251.286 553.94C251.686 554.5 252.216 554.78 252.876 554.78Z" fill="white"></path> <defs> <filter id="filter0_d" x="27.9219" y="299.786" width="420.245" height="420.245" filterUnits="userSpaceOnUse" color-interpolation-filters="sRGB"> <feFlood flood-opacity="0" result="BackgroundImageFix"></feFlood> <feColorMatrix in="SourceAlpha" type="matrix" values="0 0 0 0 0 0 0 0 0 0 0 0 0 0 0 0 0 0 127 0" result="hardAlpha"></feColorMatrix> <feOffset dy="4"></feOffset> <feGaussianBlur stdDeviation="2"></feGaussianBlur> <feComposite in2="hardAlpha" operator="out"></feComposite> <feColorMatrix type="matrix" values="0 0 0 0 0 0 0 0 0 0 0 0 0 0 0 0 0 0 0.25 0"></feColorMatrix> <feBlend mode="normal" in2="BackgroundImageFix" result="effect1_dropShadow"></feBlend> <feBlend mode="normal" in="SourceGraphic" in2="effect1_dropShadow" result="shape"></feBlend> </filter> <filter id="filter1_d" x="401.477" y="224.247" width="192.013" height="192.013" filterUnits="userSpaceOnUse" color-interpolation-filters="sRGB"> <feFlood flood-opacity="0" result="BackgroundImageFix"></feFlood> <feColorMatrix in="SourceAlpha" type="matrix" values="0 0 0 0 0 0 0 0 0 0 0 0 0 0 0 0 0 0 127 0" result="hardAlpha"></feColorMatrix> <feOffset dy="4"></feOffset> <feGaussianBlur stdDeviation="2"></feGaussianBlur> <feComposite in2="hardAlpha" operator="out"></feComposite> <feColorMatrix type="matrix" values="0 0 0 0 0 0 0 0 0 0 0 0 0 0 0 0 0 0 0.25 0"></feColorMatrix> <feBlend mode="normal" in2="BackgroundImageFix" result="effect1_dropShadow"></feBlend> <feBlend mode="normal" in="SourceGraphic" in2="effect1_dropShadow" result="shape"></feBlend> </filter> <filter id="filter2_d" x="322.48" y="317.291" width="319.602" height="319.602" filterUnits="userSpaceOnUse" color-interpolation-filters="sRGB"> <feFlood flood-opacity="0" result="BackgroundImageFix"></feFlood> <feColorMatrix in="SourceAlpha" type="matrix" values="0 0 0 0 0 0 0 0 0 0 0 0 0 0 0 0 0 0 127 0" result="hardAlpha"></feColorMatrix> <feOffset dy="4"></feOffset> <feGaussianBlur stdDeviation="2"></feGaussianBlur> <feComposite in2="hardAlpha" operator="out"></feComposite> <feColorMatrix type="matrix" values="0 0 0 0 0 0 0 0 0 0 0 0 0 0 0 0 0 0 0.25 0"></feColorMatrix> <feBlend mode="normal" in2="BackgroundImageFix" result="effect1_dropShadow"></feBlend> <feBlend mode="normal" in="SourceGraphic" in2="effect1_dropShadow" result="shape"></feBlend> </filter> <filter id="filter3_d" x="0.515625" y="0.391602" width="522.961" height="522.961" filterUnits="userSpaceOnUse" color-interpolation-filters="sRGB"> <feFlood flood-opacity="0" result="BackgroundImageFix"></feFlood> <feColorMatrix in="SourceAlpha" type="matrix" values="0 0 0 0 0 0 0 0 0 0 0 0 0 0 0 0 0 0 127 0" result="hardAlpha"></feColorMatrix> <feOffset dy="4"></feOffset> <feGaussianBlur stdDeviation="2"></feGaussianBlur> <feComposite in2="hardAlpha" operator="out"></feComposite> <feColorMatrix type="matrix" values="0 0 0 0 0 0 0 0 0 0 0 0 0 0 0 0 0 0 0.25 0"></feColorMatrix> <feBlend mode="normal" in2="BackgroundImageFix" result="effect1_dropShadow"></feBlend> <feBlend mode="normal" in="SourceGraphic" in2="effect1_dropShadow" result="shape"></feBlend> </filter> </defs> </svg> 